<svg xmlns="http://www.w3.org/2000/svg" xmlns:svg="http://www.w3.org/2000/svg" id="svg8" width="302.362" height="302.362" version="1.1" viewBox="0 0 80 80"><metadata id="metadata48"/><defs id="defs8"><marker id="startarrow" orient="auto" refX="5" refY="5" viewBox="0 0 10 10"><path id="path2" d="M 10,0 0,5 10,10 Z" style="fill:green"/></marker><marker id="endarrow" orient="auto" refX="5" refY="5" viewBox="0 0 10 10"><path id="path5" d="M 0,0 10,5 0,10 Z" style="fill:green"/></marker></defs><g id="g43" transform="matrix(-0.99999988,0,0,0.99846618,81.373076,0.08880687)"><rect id="rect3713-3-2-0-9-3" width="80" height="80.292" x="1.373" y="-.258" style="fill:#ffce9e;fill-opacity:1;stroke-width:.51720124"/><rect id="rect3713" width="10" height="10" x="1.373" y=".034" style="fill:#d18b47;fill-opacity:1;stroke-width:.06453253"/><rect id="rect3713-6" width="10" height="10" x="21.373" y=".034" style="fill:#d18b47;fill-opacity:1;stroke-width:.06453253"/><rect id="rect3713-5" width="10" height="10" x="41.373" y=".034" style="fill:#d18b47;fill-opacity:1;stroke-width:.06453253"/><rect id="rect3713-6-5" width="10" height="10" x="61.373" y=".034" style="fill:#d18b47;fill-opacity:1;stroke-width:.06453253"/><rect id="rect3713-9" width="10" height="10" x="11.373" y="10.034" style="fill:#d18b47;fill-opacity:1;stroke-width:.06453253"/><rect id="rect3713-6-2" width="10" height="10" x="31.373" y="10.034" style="fill:#d18b47;fill-opacity:1;stroke-width:.06453253"/><rect id="rect3713-5-0" width="10" height="10" x="51.373" y="10.034" style="fill:#d18b47;fill-opacity:1;stroke-width:.06453253"/><rect id="rect3713-6-5-3" width="10" height="10" x="71.373" y="10.034" style="fill:#d18b47;fill-opacity:1;stroke-width:.06453253"/><rect id="rect3713-62" width="10" height="10" x="1.373" y="20.034" style="fill:#d18b47;fill-opacity:1;stroke-width:.06453253"/><rect id="rect3713-6-1" width="10" height="10" x="21.373" y="20.034" style="fill:#d18b47;fill-opacity:1;stroke-width:.06453253"/><rect id="rect3713-5-7" width="10" height="10" x="41.373" y="20.034" style="fill:#d18b47;fill-opacity:1;stroke-width:.06453253"/><rect id="rect3713-6-5-0" width="10" height="10" x="61.373" y="20.034" style="fill:#d18b47;fill-opacity:1;stroke-width:.06453253"/><rect id="rect3713-9-3" width="10" height="10" x="11.373" y="30.034" style="fill:#d18b47;fill-opacity:1;stroke-width:.06453253"/><rect id="rect3713-6-2-5" width="10" height="10" x="31.373" y="30.034" style="fill:#d18b47;fill-opacity:1;stroke-width:.06453253"/><rect id="rect3713-5-0-2" width="10" height="10" x="51.373" y="30.034" style="fill:#d18b47;fill-opacity:1;stroke-width:.06453253"/><rect id="rect3713-6-5-3-8" width="10" height="10" x="71.373" y="30.034" style="fill:#d18b47;fill-opacity:1;stroke-width:.06453253"/><rect id="rect3713-7" width="10" height="10" x="1.373" y="40.034" style="fill:#d18b47;fill-opacity:1;stroke-width:.06453253"/><rect id="rect3713-6-12" width="10" height="10" x="21.373" y="40.034" style="fill:#d18b47;fill-opacity:1;stroke-width:.06453253"/><rect id="rect3713-5-3" width="10" height="10" x="41.373" y="40.034" style="fill:#d18b47;fill-opacity:1;stroke-width:.06453253"/><rect id="rect3713-6-5-9" width="10" height="10" x="61.373" y="40.034" style="fill:#d18b47;fill-opacity:1;stroke-width:.06453253"/><rect id="rect3713-9-7" width="10" height="10" x="11.373" y="50.034" style="fill:#d18b47;fill-opacity:1;stroke-width:.06453253"/><rect id="rect3713-6-2-4" width="10" height="10" x="31.373" y="50.034" style="fill:#d18b47;fill-opacity:1;stroke-width:.06453253"/><rect id="rect3713-5-0-0" width="10" height="10" x="51.373" y="50.034" style="fill:#d18b47;fill-opacity:1;stroke-width:.06453253"/><rect id="rect3713-6-5-3-6" width="10" height="10" x="71.373" y="50.034" style="fill:#d18b47;fill-opacity:1;stroke-width:.06453253"/><rect id="rect3713-62-0" width="10" height="10" x="1.373" y="60.034" style="fill:#d18b47;fill-opacity:1;stroke-width:.06453253"/><rect id="rect3713-6-1-3" width="10" height="10" x="21.373" y="60.034" style="fill:#d18b47;fill-opacity:1;stroke-width:.06453253"/><rect id="rect3713-5-7-0" width="10" height="10" x="41.373" y="60.034" style="fill:#d18b47;fill-opacity:1;stroke-width:.06453253"/><rect id="rect3713-6-5-0-1" width="10" height="10" x="61.373" y="60.034" style="fill:#d18b47;fill-opacity:1;stroke-width:.06453253"/><rect id="rect3713-9-3-5" width="10" height="10" x="11.373" y="70.034" style="fill:#d18b47;fill-opacity:1;stroke-width:.06453253"/><rect id="rect3713-6-2-5-7" width="10" height="10" x="31.373" y="70.034" style="fill:#d18b47;fill-opacity:1;stroke-width:.06453253"/><rect id="rect3713-5-0-2-5" width="10" height="10" x="51.373" y="70.034" style="fill:#d18b47;fill-opacity:1;stroke-width:.06453253"/><rect id="rect3713-6-5-3-8-9" width="10" height="10" x="71.373" y="70.034" style="fill:#d18b47;fill-opacity:1;stroke-width:.06453253"/></g></svg>